General

Unique ID : 168348648403719580577546155723716462494 (0x7EA6C532C2870C1E037BA147C20E879E)
Complete name : THE ADVENTURES OF TINTIN (2011) DVDRip [MKV AC3][RoB]PR3DATOR RG
Format : Matroska
Format version : Version 2
File size : 1.00 GiB
Duration : 1h 42mn
Overall bit rate : 1 403 Kbps
Writing application : Lavf51.12.1
Writing library : Lavf51.12.1

Video
ID : 1
Format : AVC
Format/Info : Advanced Video Codec
Format profile : Baseline@L2.1
Format settings, CABAC : No
Format settings, ReFrames : 5 frames
Format settings, GOP : M=1, N=12
Codec ID : V_MPEG4/ISO/AVC
Duration : 1h 42mn
Bit rate : 1 215 Kbps
Width : 640 pixels
Height : 272 pixels
Display aspect ratio : 2.35:1
Frame rate mode : Variable
Frame rate : 25.000 fps
Color space : YUV
Chroma subsampling : 4:2:0
Bit depth : 8 bits
Scan type : Progressive
Bits/(Pixel*Frame) : 0.279
Stream size : 891 MiB (87%)
Language : English
Default : Yes
Forced : No

Audio
ID : 2
Format : AC-3
Format/Info : Audio Coding 3
Mode extension : CM (complete main)
Codec ID : A_AC3
Duration : 1h 42mn
Bit rate mode : Constant
Bit rate : 160 Kbps
Channel(s) : 2 channels
Channel positions : Front: L R
Sampling rate : 44.1 KHz
Bit depth : 16 bits
Compression mode : Lossy
Stream size : 117 MiB (11%)
Language : English
Default : Yes
Forced : No

Screen Shots
 
http://img703.imageshack.us/img703/9435/vlcsnap2012022022h23m41.png
 
http://img205.imageshack.us/img205/2779/vlcsnap2012022022h23m55.png
 
http://img836.imageshack.us/img836/1658/vlcsnap2012022022h25m01.png
 
http://img546.imageshack.us/img546/232/vlcsnap2012022022h25m08.png

